<svg width="413" height="276" viewBox="0 0 413 276" fill="none" xmlns="http://www.w3.org/2000/svg">
<path d="M186.039 137.648V139.423H178.155V154H175.999V137.648H186.039ZM185.725 148.059V147.801C185.725 146.925 185.852 146.112 186.106 145.364C186.361 144.608 186.728 143.952 187.207 143.398C187.686 142.837 188.266 142.403 188.948 142.096C189.629 141.781 190.393 141.624 191.239 141.624C192.092 141.624 192.86 141.781 193.541 142.096C194.23 142.403 194.814 142.837 195.293 143.398C195.78 143.952 196.15 144.608 196.405 145.364C196.659 146.112 196.787 146.925 196.787 147.801V148.059C196.787 148.935 196.659 149.747 196.405 150.496C196.15 151.245 195.78 151.9 195.293 152.461C194.814 153.015 194.234 153.45 193.552 153.764C192.878 154.071 192.115 154.225 191.261 154.225C190.408 154.225 189.64 154.071 188.959 153.764C188.278 153.45 187.694 153.015 187.207 152.461C186.728 151.9 186.361 151.245 186.106 150.496C185.852 149.747 185.725 148.935 185.725 148.059ZM187.802 147.801V148.059C187.802 148.666 187.873 149.238 188.016 149.777C188.158 150.309 188.371 150.781 188.656 151.192C188.948 151.604 189.311 151.93 189.745 152.169C190.179 152.402 190.685 152.518 191.261 152.518C191.83 152.518 192.328 152.402 192.755 152.169C193.189 151.93 193.549 151.604 193.833 151.192C194.118 150.781 194.331 150.309 194.473 149.777C194.623 149.238 194.698 148.666 194.698 148.059V147.801C194.698 147.202 194.623 146.637 194.473 146.105C194.331 145.566 194.114 145.09 193.822 144.679C193.537 144.259 193.178 143.93 192.744 143.69C192.317 143.451 191.815 143.331 191.239 143.331C190.67 143.331 190.168 143.451 189.734 143.69C189.307 143.93 188.948 144.259 188.656 144.679C188.371 145.09 188.158 145.566 188.016 146.105C187.873 146.637 187.802 147.202 187.802 147.801ZM204.255 152.518C204.749 152.518 205.206 152.417 205.625 152.214C206.044 152.012 206.389 151.735 206.658 151.383C206.928 151.024 207.081 150.616 207.119 150.159H209.095C209.058 150.878 208.814 151.548 208.365 152.169C207.924 152.783 207.343 153.281 206.625 153.663C205.906 154.037 205.116 154.225 204.255 154.225C203.341 154.225 202.544 154.064 201.863 153.742C201.189 153.42 200.627 152.978 200.178 152.417C199.736 151.855 199.403 151.211 199.179 150.485C198.962 149.751 198.853 148.976 198.853 148.16V147.688C198.853 146.872 198.962 146.101 199.179 145.375C199.403 144.641 199.736 143.994 200.178 143.432C200.627 142.871 201.189 142.429 201.863 142.107C202.544 141.785 203.341 141.624 204.255 141.624C205.206 141.624 206.037 141.819 206.748 142.208C207.459 142.59 208.017 143.114 208.421 143.78C208.833 144.439 209.058 145.188 209.095 146.026H207.119C207.081 145.525 206.939 145.072 206.692 144.667C206.452 144.263 206.123 143.941 205.704 143.702C205.292 143.455 204.809 143.331 204.255 143.331C203.618 143.331 203.083 143.458 202.649 143.713C202.222 143.96 201.882 144.297 201.627 144.724C201.38 145.143 201.2 145.611 201.088 146.127C200.983 146.637 200.931 147.157 200.931 147.688V148.16C200.931 148.692 200.983 149.216 201.088 149.732C201.193 150.249 201.369 150.717 201.616 151.136C201.87 151.556 202.211 151.892 202.638 152.147C203.072 152.394 203.611 152.518 204.255 152.518ZM214.845 152.742L218.226 141.849H220.449L215.575 155.875C215.463 156.175 215.313 156.497 215.126 156.841C214.946 157.193 214.714 157.526 214.43 157.841C214.145 158.155 213.801 158.41 213.396 158.604C213 158.807 212.524 158.908 211.97 158.908C211.806 158.908 211.596 158.885 211.341 158.84C211.087 158.795 210.907 158.758 210.802 158.728L210.791 157.043C210.851 157.051 210.944 157.058 211.072 157.066C211.207 157.081 211.3 157.088 211.353 157.088C211.824 157.088 212.225 157.025 212.554 156.897C212.884 156.778 213.161 156.572 213.385 156.28C213.617 155.995 213.816 155.602 213.98 155.101L214.845 152.742ZM212.363 141.849L215.519 151.282L216.058 153.472L214.564 154.236L210.095 141.849H212.363ZM223.886 141.849H225.963L225.784 146.397C225.739 147.55 225.608 148.546 225.391 149.384C225.174 150.223 224.896 150.938 224.56 151.529C224.223 152.113 223.845 152.604 223.425 153C223.014 153.397 222.587 153.73 222.145 154H221.112L221.168 152.304L221.595 152.293C221.842 152.001 222.081 151.701 222.313 151.395C222.546 151.08 222.759 150.709 222.954 150.283C223.148 149.848 223.309 149.321 223.437 148.699C223.571 148.07 223.657 147.303 223.695 146.397L223.886 141.849ZM224.402 141.849H231.713V154H229.636V143.769H224.402V141.849ZM220.64 152.293H233.274V157.583H231.197V154H222.718V157.583H220.629L220.64 152.293ZM242.742 151.922V145.667C242.742 145.188 242.644 144.772 242.45 144.42C242.263 144.061 241.978 143.784 241.596 143.589C241.214 143.395 240.743 143.297 240.181 143.297C239.657 143.297 239.197 143.387 238.8 143.567C238.41 143.747 238.104 143.982 237.879 144.274C237.662 144.566 237.553 144.881 237.553 145.218H235.476C235.476 144.784 235.588 144.353 235.812 143.926C236.037 143.5 236.359 143.114 236.778 142.77C237.205 142.418 237.714 142.141 238.306 141.938C238.905 141.729 239.571 141.624 240.305 141.624C241.188 141.624 241.967 141.774 242.641 142.073C243.322 142.373 243.854 142.826 244.235 143.432C244.625 144.031 244.819 144.784 244.819 145.689V151.35C244.819 151.754 244.853 152.184 244.92 152.641C244.995 153.098 245.104 153.491 245.246 153.82V154H243.079C242.974 153.76 242.891 153.442 242.832 153.045C242.772 152.641 242.742 152.267 242.742 151.922ZM243.101 146.633L243.124 148.093H241.023C240.432 148.093 239.904 148.141 239.44 148.239C238.976 148.329 238.586 148.467 238.272 148.654C237.958 148.841 237.718 149.077 237.553 149.362C237.389 149.639 237.306 149.965 237.306 150.339C237.306 150.721 237.392 151.069 237.564 151.383C237.737 151.698 237.995 151.949 238.339 152.136C238.691 152.315 239.122 152.405 239.631 152.405C240.267 152.405 240.829 152.271 241.315 152.001C241.802 151.731 242.188 151.402 242.472 151.013C242.764 150.623 242.921 150.245 242.944 149.878L243.831 150.878C243.779 151.192 243.636 151.541 243.404 151.922C243.172 152.304 242.861 152.671 242.472 153.023C242.09 153.367 241.634 153.656 241.102 153.888C240.578 154.112 239.986 154.225 239.328 154.225C238.504 154.225 237.782 154.064 237.16 153.742C236.546 153.42 236.067 152.989 235.723 152.45C235.386 151.904 235.217 151.293 235.217 150.62C235.217 149.968 235.345 149.396 235.599 148.901C235.854 148.4 236.221 147.984 236.7 147.655C237.179 147.318 237.755 147.063 238.429 146.891C239.103 146.719 239.855 146.633 240.687 146.633H243.101ZM250.165 144.185V158.672H248.076V141.849H249.985L250.165 144.185ZM258.352 147.823V148.059C258.352 148.943 258.247 149.762 258.038 150.519C257.828 151.267 257.521 151.919 257.117 152.473C256.72 153.027 256.229 153.457 255.646 153.764C255.062 154.071 254.391 154.225 253.635 154.225C252.864 154.225 252.183 154.097 251.591 153.843C251 153.588 250.498 153.218 250.086 152.731C249.675 152.244 249.345 151.66 249.098 150.979C248.859 150.298 248.694 149.53 248.604 148.677V147.419C248.694 146.521 248.862 145.716 249.109 145.004C249.356 144.293 249.682 143.687 250.086 143.185C250.498 142.676 250.996 142.29 251.58 142.028C252.164 141.759 252.838 141.624 253.602 141.624C254.365 141.624 255.043 141.774 255.634 142.073C256.226 142.365 256.724 142.785 257.128 143.331C257.532 143.878 257.835 144.533 258.038 145.296C258.247 146.053 258.352 146.895 258.352 147.823ZM256.263 148.059V147.823C256.263 147.217 256.2 146.648 256.072 146.116C255.945 145.577 255.747 145.105 255.477 144.701C255.215 144.289 254.878 143.967 254.466 143.735C254.055 143.496 253.564 143.376 252.995 143.376C252.471 143.376 252.014 143.466 251.625 143.646C251.243 143.825 250.917 144.069 250.648 144.375C250.378 144.675 250.158 145.019 249.985 145.409C249.821 145.791 249.697 146.187 249.615 146.599V149.508C249.764 150.032 249.974 150.526 250.244 150.99C250.513 151.447 250.873 151.818 251.322 152.102C251.771 152.379 252.336 152.518 253.018 152.518C253.579 152.518 254.062 152.402 254.466 152.169C254.878 151.93 255.215 151.604 255.477 151.192C255.747 150.781 255.945 150.309 256.072 149.777C256.2 149.238 256.263 148.666 256.263 148.059ZM265.865 152.518C266.359 152.518 266.816 152.417 267.235 152.214C267.655 152.012 267.999 151.735 268.269 151.383C268.538 151.024 268.692 150.616 268.729 150.159H270.706C270.668 150.878 270.425 151.548 269.976 152.169C269.534 152.783 268.954 153.281 268.235 153.663C267.516 154.037 266.726 154.225 265.865 154.225C264.952 154.225 264.154 154.064 263.473 153.742C262.799 153.42 262.238 152.978 261.789 152.417C261.347 151.855 261.014 151.211 260.789 150.485C260.572 149.751 260.463 148.976 260.463 148.16V147.688C260.463 146.872 260.572 146.101 260.789 145.375C261.014 144.641 261.347 143.994 261.789 143.432C262.238 142.871 262.799 142.429 263.473 142.107C264.154 141.785 264.952 141.624 265.865 141.624C266.816 141.624 267.647 141.819 268.358 142.208C269.07 142.59 269.627 143.114 270.032 143.78C270.444 144.439 270.668 145.188 270.706 146.026H268.729C268.692 145.525 268.549 145.072 268.302 144.667C268.063 144.263 267.733 143.941 267.314 143.702C266.902 143.455 266.419 143.331 265.865 143.331C265.229 143.331 264.694 143.458 264.259 143.713C263.833 143.96 263.492 144.297 263.237 144.724C262.99 145.143 262.811 145.611 262.698 146.127C262.593 146.637 262.541 147.157 262.541 147.688V148.16C262.541 148.692 262.593 149.216 262.698 149.732C262.803 150.249 262.979 150.717 263.226 151.136C263.481 151.556 263.821 151.892 264.248 152.147C264.682 152.394 265.221 152.518 265.865 152.518ZM277.994 141.849V154H275.905V141.849H277.994ZM282.071 141.849V143.533H271.907V141.849H282.071ZM289.82 148.654H285.833L285.811 146.992H289.067C289.711 146.992 290.247 146.929 290.673 146.801C291.108 146.674 291.433 146.483 291.65 146.229C291.868 145.974 291.976 145.66 291.976 145.285C291.976 144.993 291.912 144.739 291.785 144.521C291.665 144.297 291.482 144.113 291.235 143.971C290.988 143.821 290.681 143.713 290.314 143.646C289.955 143.571 289.532 143.533 289.045 143.533H286.383V154H284.306V141.849H289.045C289.816 141.849 290.509 141.916 291.123 142.051C291.744 142.186 292.272 142.391 292.706 142.668C293.148 142.938 293.485 143.282 293.717 143.702C293.949 144.121 294.065 144.615 294.065 145.184C294.065 145.551 293.99 145.899 293.84 146.229C293.691 146.558 293.47 146.85 293.178 147.104C292.886 147.359 292.526 147.569 292.1 147.733C291.673 147.891 291.182 147.992 290.628 148.037L289.82 148.654ZM289.82 154H285.081L286.114 152.315H289.82C290.396 152.315 290.875 152.244 291.257 152.102C291.639 151.952 291.924 151.743 292.111 151.473C292.306 151.196 292.403 150.867 292.403 150.485C292.403 150.103 292.306 149.777 292.111 149.508C291.924 149.231 291.639 149.021 291.257 148.879C290.875 148.729 290.396 148.654 289.82 148.654H286.664L286.687 146.992H290.628L291.381 147.621C292.047 147.674 292.612 147.838 293.077 148.115C293.541 148.392 293.893 148.744 294.132 149.171C294.372 149.59 294.492 150.047 294.492 150.541C294.492 151.11 294.383 151.612 294.166 152.046C293.956 152.48 293.649 152.843 293.245 153.135C292.841 153.42 292.35 153.637 291.774 153.787C291.197 153.929 290.546 154 289.82 154ZM302.319 154.225C301.473 154.225 300.706 154.082 300.017 153.798C299.336 153.506 298.748 153.098 298.254 152.574C297.767 152.05 297.393 151.428 297.131 150.709C296.869 149.991 296.738 149.205 296.738 148.351V147.879C296.738 146.891 296.884 146.011 297.176 145.24C297.468 144.462 297.865 143.803 298.366 143.264C298.868 142.725 299.437 142.317 300.073 142.04C300.71 141.763 301.368 141.624 302.05 141.624C302.918 141.624 303.667 141.774 304.296 142.073C304.932 142.373 305.453 142.792 305.857 143.331C306.261 143.863 306.561 144.492 306.755 145.218C306.95 145.937 307.047 146.723 307.047 147.576V148.508H297.973V146.812H304.97V146.655C304.94 146.116 304.827 145.592 304.633 145.083C304.446 144.574 304.146 144.155 303.734 143.825C303.323 143.496 302.761 143.331 302.05 143.331C301.578 143.331 301.144 143.432 300.747 143.634C300.35 143.829 300.01 144.121 299.725 144.51C299.441 144.9 299.22 145.375 299.062 145.937C298.905 146.498 298.827 147.146 298.827 147.879V148.351C298.827 148.928 298.905 149.47 299.062 149.979C299.227 150.481 299.463 150.923 299.77 151.305C300.084 151.687 300.463 151.986 300.904 152.203C301.354 152.42 301.863 152.529 302.432 152.529C303.165 152.529 303.787 152.379 304.296 152.08C304.805 151.78 305.25 151.38 305.632 150.878L306.89 151.877C306.628 152.274 306.295 152.652 305.891 153.012C305.486 153.371 304.988 153.663 304.397 153.888C303.813 154.112 303.12 154.225 302.319 154.225ZM317.716 147.116V148.8H311.292V147.116H317.716ZM311.73 141.849V154H309.653V141.849H311.73ZM319.401 141.849V154H317.312V141.849H319.401ZM330.991 147.116V148.8H324.567V147.116H330.991ZM325.005 141.849V154H322.927V141.849H325.005ZM332.675 141.849V154H330.586V141.849H332.675ZM337.729 146.026H341.379C342.36 146.026 343.187 146.199 343.861 146.543C344.535 146.88 345.044 147.348 345.388 147.947C345.74 148.538 345.916 149.212 345.916 149.968C345.916 150.53 345.819 151.058 345.624 151.552C345.429 152.038 345.137 152.465 344.748 152.832C344.366 153.199 343.891 153.487 343.322 153.697C342.76 153.899 342.113 154 341.379 154H336.213V141.849H338.291V152.293H341.379C341.978 152.293 342.457 152.184 342.816 151.967C343.176 151.75 343.434 151.469 343.591 151.125C343.749 150.781 343.827 150.421 343.827 150.047C343.827 149.68 343.749 149.321 343.591 148.969C343.434 148.617 343.176 148.325 342.816 148.093C342.457 147.853 341.978 147.733 341.379 147.733H337.729V146.026ZM350.24 141.849V154H348.162V141.849H350.24ZM356.125 150.709L361.729 141.849H363.817V154H361.729V145.139L356.125 154H354.058V141.849H356.125V150.709ZM360.594 137.446H362.279C362.279 138.03 362.144 138.551 361.875 139.007C361.605 139.457 361.219 139.808 360.718 140.063C360.216 140.318 359.621 140.445 358.932 140.445C357.891 140.445 357.068 140.168 356.461 139.614C355.862 139.052 355.563 138.33 355.563 137.446H357.248C357.248 137.888 357.375 138.277 357.629 138.614C357.884 138.951 358.318 139.12 358.932 139.12C359.531 139.12 359.958 138.951 360.212 138.614C360.467 138.277 360.594 137.888 360.594 137.446ZM178.998 179.742L182.378 168.849H184.602L179.728 182.875C179.615 183.175 179.465 183.497 179.278 183.841C179.099 184.193 178.867 184.526 178.582 184.841C178.298 185.155 177.953 185.41 177.549 185.604C177.152 185.807 176.677 185.908 176.123 185.908C175.958 185.908 175.748 185.885 175.494 185.84C175.239 185.795 175.059 185.758 174.955 185.728L174.943 184.043C175.003 184.051 175.097 184.058 175.224 184.066C175.359 184.081 175.452 184.088 175.505 184.088C175.977 184.088 176.377 184.025 176.707 183.897C177.036 183.778 177.313 183.572 177.538 183.28C177.77 182.995 177.968 182.602 178.133 182.101L178.998 179.742ZM176.516 168.849L179.671 178.282L180.21 180.472L178.717 181.236L174.247 168.849H176.516ZM194.72 174.116V175.8H188.296V174.116H194.72ZM188.734 168.849V181H186.657V168.849H188.734ZM196.405 168.849V181H194.316V168.849H196.405ZM201.998 177.709L207.602 168.849H209.69V181H207.602V172.139L201.998 181H199.931V168.849H201.998V177.709ZM218.731 175.654H214.744L214.722 173.992H217.979C218.622 173.992 219.158 173.929 219.584 173.801C220.019 173.674 220.344 173.483 220.562 173.229C220.779 172.974 220.887 172.66 220.887 172.285C220.887 171.993 220.824 171.739 220.696 171.521C220.576 171.297 220.393 171.113 220.146 170.971C219.899 170.821 219.592 170.713 219.225 170.646C218.866 170.571 218.443 170.533 217.956 170.533H215.294V181H213.217V168.849H217.956C218.727 168.849 219.42 168.916 220.034 169.051C220.655 169.186 221.183 169.391 221.617 169.668C222.059 169.938 222.396 170.282 222.628 170.702C222.86 171.121 222.976 171.615 222.976 172.184C222.976 172.551 222.901 172.899 222.751 173.229C222.602 173.558 222.381 173.85 222.089 174.104C221.797 174.359 221.438 174.569 221.011 174.733C220.584 174.891 220.094 174.992 219.54 175.037L218.731 175.654ZM218.731 181H213.992L215.025 179.315H218.731C219.307 179.315 219.787 179.244 220.168 179.102C220.55 178.952 220.835 178.743 221.022 178.473C221.217 178.196 221.314 177.867 221.314 177.485C221.314 177.103 221.217 176.777 221.022 176.508C220.835 176.231 220.55 176.021 220.168 175.879C219.787 175.729 219.307 175.654 218.731 175.654H215.575L215.598 173.992H219.54L220.292 174.621C220.958 174.674 221.524 174.838 221.988 175.115C222.452 175.392 222.804 175.744 223.043 176.171C223.283 176.59 223.403 177.047 223.403 177.541C223.403 178.11 223.294 178.612 223.077 179.046C222.868 179.48 222.561 179.843 222.156 180.135C221.752 180.42 221.262 180.637 220.685 180.787C220.109 180.929 219.457 181 218.731 181ZM231.23 181.225C230.384 181.225 229.617 181.082 228.928 180.798C228.247 180.506 227.659 180.098 227.165 179.574C226.678 179.05 226.304 178.428 226.042 177.709C225.78 176.991 225.649 176.205 225.649 175.351V174.879C225.649 173.891 225.795 173.011 226.087 172.24C226.379 171.462 226.776 170.803 227.277 170.264C227.779 169.725 228.348 169.317 228.984 169.04C229.621 168.763 230.28 168.624 230.961 168.624C231.829 168.624 232.578 168.774 233.207 169.073C233.843 169.373 234.364 169.792 234.768 170.331C235.172 170.863 235.472 171.492 235.667 172.218C235.861 172.937 235.958 173.723 235.958 174.576V175.508H226.884V173.812H233.881V173.655C233.851 173.116 233.739 172.592 233.544 172.083C233.357 171.574 233.057 171.155 232.646 170.825C232.234 170.496 231.672 170.331 230.961 170.331C230.489 170.331 230.055 170.432 229.658 170.634C229.261 170.829 228.921 171.121 228.636 171.51C228.352 171.9 228.131 172.375 227.974 172.937C227.816 173.498 227.738 174.146 227.738 174.879V175.351C227.738 175.928 227.816 176.47 227.974 176.979C228.138 177.481 228.374 177.923 228.681 178.305C228.996 178.687 229.374 178.986 229.815 179.203C230.265 179.42 230.774 179.529 231.343 179.529C232.076 179.529 232.698 179.379 233.207 179.08C233.716 178.78 234.162 178.38 234.543 177.878L235.801 178.877C235.539 179.274 235.206 179.652 234.802 180.012C234.397 180.371 233.9 180.663 233.308 180.888C232.724 181.112 232.032 181.225 231.23 181.225ZM240.462 171.185V185.672H238.373V168.849H240.282L240.462 171.185ZM248.649 174.823V175.059C248.649 175.943 248.544 176.762 248.334 177.519C248.125 178.267 247.818 178.919 247.414 179.473C247.017 180.027 246.526 180.457 245.942 180.764C245.358 181.071 244.688 181.225 243.932 181.225C243.161 181.225 242.48 181.097 241.888 180.843C241.297 180.588 240.795 180.218 240.383 179.731C239.972 179.244 239.642 178.66 239.395 177.979C239.155 177.298 238.991 176.53 238.901 175.677V174.419C238.991 173.521 239.159 172.716 239.406 172.004C239.653 171.293 239.979 170.687 240.383 170.185C240.795 169.676 241.293 169.29 241.877 169.028C242.461 168.759 243.135 168.624 243.898 168.624C244.662 168.624 245.34 168.774 245.931 169.073C246.523 169.365 247.021 169.785 247.425 170.331C247.829 170.878 248.132 171.533 248.334 172.296C248.544 173.053 248.649 173.895 248.649 174.823ZM246.56 175.059V174.823C246.56 174.217 246.496 173.648 246.369 173.116C246.242 172.577 246.043 172.105 245.774 171.701C245.512 171.289 245.175 170.967 244.763 170.735C244.351 170.496 243.861 170.376 243.292 170.376C242.768 170.376 242.311 170.466 241.922 170.646C241.54 170.825 241.214 171.069 240.945 171.375C240.675 171.675 240.454 172.019 240.282 172.409C240.118 172.791 239.994 173.187 239.912 173.599V176.508C240.061 177.032 240.271 177.526 240.541 177.99C240.81 178.447 241.169 178.818 241.619 179.102C242.068 179.379 242.633 179.518 243.314 179.518C243.876 179.518 244.359 179.402 244.763 179.169C245.175 178.93 245.512 178.604 245.774 178.192C246.043 177.781 246.242 177.309 246.369 176.777C246.496 176.238 246.56 175.666 246.56 175.059ZM256.162 179.518C256.656 179.518 257.113 179.417 257.532 179.214C257.951 179.012 258.296 178.735 258.565 178.383C258.835 178.024 258.988 177.616 259.026 177.159H261.002C260.965 177.878 260.722 178.548 260.272 179.169C259.831 179.783 259.25 180.281 258.532 180.663C257.813 181.037 257.023 181.225 256.162 181.225C255.249 181.225 254.451 181.064 253.77 180.742C253.096 180.42 252.535 179.978 252.085 179.417C251.644 178.855 251.311 178.211 251.086 177.485C250.869 176.751 250.76 175.976 250.76 175.16V174.688C250.76 173.872 250.869 173.101 251.086 172.375C251.311 171.641 251.644 170.994 252.085 170.432C252.535 169.871 253.096 169.429 253.77 169.107C254.451 168.785 255.249 168.624 256.162 168.624C257.113 168.624 257.944 168.819 258.655 169.208C259.367 169.59 259.924 170.114 260.329 170.78C260.74 171.439 260.965 172.188 261.002 173.026H259.026C258.988 172.525 258.846 172.072 258.599 171.667C258.36 171.263 258.03 170.941 257.611 170.702C257.199 170.455 256.716 170.331 256.162 170.331C255.526 170.331 254.99 170.458 254.556 170.713C254.129 170.96 253.789 171.297 253.534 171.724C253.287 172.143 253.107 172.611 252.995 173.127C252.89 173.637 252.838 174.157 252.838 174.688V175.16C252.838 175.692 252.89 176.216 252.995 176.732C253.1 177.249 253.276 177.717 253.523 178.136C253.778 178.556 254.118 178.892 254.545 179.147C254.979 179.394 255.518 179.518 256.162 179.518ZM265.584 177.709L271.188 168.849H273.277V181H271.188V172.139L265.584 181H263.518V168.849H265.584V177.709ZM281.565 168.849V181H279.477V168.849H281.565ZM285.642 168.849V170.533H275.479V168.849H285.642ZM291.83 181.225C290.984 181.225 290.217 181.082 289.528 180.798C288.847 180.506 288.259 180.098 287.765 179.574C287.278 179.05 286.904 178.428 286.642 177.709C286.38 176.991 286.249 176.205 286.249 175.351V174.879C286.249 173.891 286.395 173.011 286.687 172.24C286.979 171.462 287.375 170.803 287.877 170.264C288.379 169.725 288.948 169.317 289.584 169.04C290.22 168.763 290.879 168.624 291.561 168.624C292.429 168.624 293.178 168.774 293.807 169.073C294.443 169.373 294.963 169.792 295.368 170.331C295.772 170.863 296.071 171.492 296.266 172.218C296.461 172.937 296.558 173.723 296.558 174.576V175.508H287.484V173.812H294.48V173.655C294.451 173.116 294.338 172.592 294.144 172.083C293.956 171.574 293.657 171.155 293.245 170.825C292.833 170.496 292.272 170.331 291.561 170.331C291.089 170.331 290.655 170.432 290.258 170.634C289.861 170.829 289.52 171.121 289.236 171.51C288.951 171.9 288.73 172.375 288.573 172.937C288.416 173.498 288.337 174.146 288.337 174.879V175.351C288.337 175.928 288.416 176.47 288.573 176.979C288.738 177.481 288.974 177.923 289.281 178.305C289.595 178.687 289.973 178.986 290.415 179.203C290.864 179.42 291.373 179.529 291.942 179.529C292.676 179.529 293.298 179.379 293.807 179.08C294.316 178.78 294.761 178.38 295.143 177.878L296.401 178.877C296.139 179.274 295.806 179.652 295.401 180.012C294.997 180.371 294.499 180.663 293.908 180.888C293.324 181.112 292.631 181.225 291.83 181.225ZM303.802 168.849V181H301.713V168.849H303.802ZM307.878 168.849V170.533H297.715V168.849H307.878ZM182.749 205.922V199.667C182.749 199.188 182.651 198.772 182.457 198.42C182.269 198.061 181.985 197.784 181.603 197.589C181.221 197.395 180.75 197.297 180.188 197.297C179.664 197.297 179.203 197.387 178.807 197.567C178.417 197.747 178.11 197.982 177.886 198.274C177.669 198.566 177.56 198.881 177.56 199.218H175.482C175.482 198.784 175.595 198.353 175.819 197.926C176.044 197.5 176.366 197.114 176.785 196.77C177.212 196.418 177.721 196.141 178.312 195.938C178.911 195.729 179.578 195.624 180.312 195.624C181.195 195.624 181.974 195.774 182.647 196.073C183.329 196.373 183.86 196.826 184.242 197.432C184.632 198.031 184.826 198.784 184.826 199.689V205.35C184.826 205.754 184.86 206.184 184.927 206.641C185.002 207.098 185.111 207.491 185.253 207.82V208H183.085C182.981 207.76 182.898 207.442 182.838 207.045C182.778 206.641 182.749 206.267 182.749 205.922ZM183.108 200.633L183.13 202.093H181.03C180.439 202.093 179.911 202.141 179.447 202.239C178.983 202.329 178.593 202.467 178.279 202.654C177.964 202.841 177.725 203.077 177.56 203.362C177.395 203.639 177.313 203.965 177.313 204.339C177.313 204.721 177.399 205.069 177.571 205.383C177.743 205.698 178.002 205.949 178.346 206.136C178.698 206.315 179.129 206.405 179.638 206.405C180.274 206.405 180.836 206.271 181.322 206.001C181.809 205.731 182.194 205.402 182.479 205.013C182.771 204.623 182.928 204.245 182.951 203.878L183.838 204.878C183.785 205.192 183.643 205.541 183.411 205.922C183.179 206.304 182.868 206.671 182.479 207.023C182.097 207.367 181.64 207.656 181.109 207.888C180.585 208.112 179.993 208.225 179.334 208.225C178.511 208.225 177.788 208.064 177.167 207.742C176.553 207.42 176.074 206.989 175.729 206.45C175.393 205.904 175.224 205.293 175.224 204.62C175.224 203.968 175.351 203.396 175.606 202.901C175.861 202.4 176.227 201.984 176.707 201.655C177.186 201.318 177.762 201.063 178.436 200.891C179.11 200.719 179.862 200.633 180.693 200.633H183.108ZM192.351 197.331C191.894 197.331 191.456 197.432 191.037 197.634C190.625 197.836 190.284 198.117 190.015 198.477C189.753 198.828 189.622 199.236 189.622 199.701H187.634C187.634 198.974 187.858 198.304 188.308 197.69C188.757 197.069 189.341 196.571 190.06 196.197C190.778 195.815 191.542 195.624 192.351 195.624C193.204 195.624 193.96 195.785 194.619 196.107C195.278 196.429 195.832 196.871 196.281 197.432C196.738 197.994 197.082 198.641 197.314 199.375C197.547 200.101 197.663 200.872 197.663 201.688V202.16C197.663 202.976 197.543 203.751 197.303 204.485C197.071 205.211 196.727 205.859 196.27 206.428C195.821 206.989 195.267 207.431 194.608 207.753C193.957 208.075 193.208 208.236 192.362 208.236C191.456 208.236 190.644 208.041 189.925 207.652C189.214 207.263 188.652 206.738 188.24 206.08C187.836 205.413 187.634 204.665 187.634 203.833H189.622C189.622 204.335 189.741 204.792 189.981 205.204C190.228 205.608 190.557 205.93 190.969 206.169C191.381 206.409 191.845 206.529 192.362 206.529C192.923 206.529 193.406 206.402 193.811 206.147C194.222 205.892 194.559 205.556 194.821 205.136C195.083 204.717 195.274 204.249 195.394 203.732C195.521 203.208 195.585 202.684 195.585 202.16V201.688C195.585 201.157 195.521 200.633 195.394 200.116C195.274 199.6 195.083 199.132 194.821 198.712C194.567 198.293 194.234 197.96 193.822 197.713C193.417 197.458 192.927 197.331 192.351 197.331ZM196.596 200.958V202.654H190.992V200.958H196.596ZM202.548 198.185V212.672H200.459V195.849H202.368L202.548 198.185ZM210.735 201.823V202.059C210.735 202.943 210.63 203.762 210.42 204.519C210.211 205.267 209.904 205.919 209.5 206.473C209.103 207.027 208.612 207.457 208.028 207.764C207.444 208.071 206.774 208.225 206.018 208.225C205.247 208.225 204.566 208.097 203.974 207.843C203.383 207.588 202.881 207.218 202.469 206.731C202.057 206.244 201.728 205.66 201.481 204.979C201.241 204.298 201.077 203.53 200.987 202.677V201.419C201.077 200.521 201.245 199.716 201.492 199.004C201.739 198.293 202.065 197.687 202.469 197.185C202.881 196.676 203.379 196.29 203.963 196.028C204.547 195.759 205.221 195.624 205.984 195.624C206.748 195.624 207.426 195.774 208.017 196.073C208.609 196.365 209.106 196.785 209.511 197.331C209.915 197.878 210.218 198.533 210.42 199.296C210.63 200.053 210.735 200.895 210.735 201.823ZM208.646 202.059V201.823C208.646 201.217 208.582 200.648 208.455 200.116C208.328 199.577 208.129 199.105 207.86 198.701C207.598 198.289 207.261 197.967 206.849 197.735C206.437 197.496 205.947 197.376 205.378 197.376C204.854 197.376 204.397 197.466 204.008 197.646C203.626 197.825 203.3 198.069 203.031 198.375C202.761 198.675 202.54 199.019 202.368 199.409C202.203 199.791 202.08 200.187 201.998 200.599V203.508C202.147 204.032 202.357 204.526 202.626 204.99C202.896 205.447 203.255 205.818 203.705 206.102C204.154 206.379 204.719 206.518 205.4 206.518C205.962 206.518 206.445 206.402 206.849 206.169C207.261 205.93 207.598 205.604 207.86 205.192C208.129 204.781 208.328 204.309 208.455 203.777C208.582 203.238 208.646 202.666 208.646 202.059ZM212.835 202.059V201.801C212.835 200.925 212.962 200.112 213.217 199.364C213.471 198.608 213.838 197.952 214.317 197.398C214.797 196.837 215.377 196.403 216.058 196.096C216.739 195.781 217.503 195.624 218.349 195.624C219.203 195.624 219.97 195.781 220.651 196.096C221.34 196.403 221.924 196.837 222.403 197.398C222.89 197.952 223.261 198.608 223.515 199.364C223.77 200.112 223.897 200.925 223.897 201.801V202.059C223.897 202.935 223.77 203.747 223.515 204.496C223.261 205.245 222.89 205.9 222.403 206.461C221.924 207.015 221.344 207.45 220.663 207.764C219.989 208.071 219.225 208.225 218.372 208.225C217.518 208.225 216.751 208.071 216.069 207.764C215.388 207.45 214.804 207.015 214.317 206.461C213.838 205.9 213.471 205.245 213.217 204.496C212.962 203.747 212.835 202.935 212.835 202.059ZM214.913 201.801V202.059C214.913 202.666 214.984 203.238 215.126 203.777C215.268 204.309 215.482 204.781 215.766 205.192C216.058 205.604 216.421 205.93 216.855 206.169C217.29 206.402 217.795 206.518 218.372 206.518C218.941 206.518 219.438 206.402 219.865 206.169C220.299 205.93 220.659 205.604 220.943 205.192C221.228 204.781 221.441 204.309 221.583 203.777C221.733 203.238 221.808 202.666 221.808 202.059V201.801C221.808 201.202 221.733 200.637 221.583 200.105C221.441 199.566 221.224 199.09 220.932 198.679C220.648 198.259 220.288 197.93 219.854 197.69C219.427 197.451 218.926 197.331 218.349 197.331C217.78 197.331 217.278 197.451 216.844 197.69C216.417 197.93 216.058 198.259 215.766 198.679C215.482 199.09 215.268 199.566 215.126 200.105C214.984 200.637 214.913 201.202 214.913 201.801ZM228.76 195.849V208H226.682V195.849H228.76ZM236.733 195.849L230.972 202.812H228.063L227.749 200.992H230.13L234.207 195.849H236.733ZM234.499 208L230.029 202.497L231.365 200.992L237.138 208H234.499ZM238.148 202.059V201.801C238.148 200.925 238.276 200.112 238.53 199.364C238.785 198.608 239.152 197.952 239.631 197.398C240.11 196.837 240.69 196.403 241.372 196.096C242.053 195.781 242.817 195.624 243.663 195.624C244.516 195.624 245.284 195.781 245.965 196.096C246.654 196.403 247.238 196.837 247.717 197.398C248.203 197.952 248.574 198.608 248.829 199.364C249.083 200.112 249.21 200.925 249.21 201.801V202.059C249.21 202.935 249.083 203.747 248.829 204.496C248.574 205.245 248.203 205.9 247.717 206.461C247.238 207.015 246.657 207.45 245.976 207.764C245.302 208.071 244.539 208.225 243.685 208.225C242.832 208.225 242.064 208.071 241.383 207.764C240.701 207.45 240.118 207.015 239.631 206.461C239.152 205.9 238.785 205.245 238.53 204.496C238.276 203.747 238.148 202.935 238.148 202.059ZM240.226 201.801V202.059C240.226 202.666 240.297 203.238 240.439 203.777C240.582 204.309 240.795 204.781 241.08 205.192C241.372 205.604 241.735 205.93 242.169 206.169C242.603 206.402 243.109 206.518 243.685 206.518C244.254 206.518 244.752 206.402 245.179 206.169C245.613 205.93 245.972 205.604 246.257 205.192C246.541 204.781 246.755 204.309 246.897 203.777C247.047 203.238 247.122 202.666 247.122 202.059V201.801C247.122 201.202 247.047 200.637 246.897 200.105C246.755 199.566 246.538 199.09 246.246 198.679C245.961 198.259 245.602 197.93 245.167 197.69C244.741 197.451 244.239 197.331 243.663 197.331C243.094 197.331 242.592 197.451 242.158 197.69C241.731 197.93 241.372 198.259 241.08 198.679C240.795 199.09 240.582 199.566 240.439 200.105C240.297 200.637 240.226 201.202 240.226 201.801ZM256.679 206.518C257.173 206.518 257.63 206.417 258.049 206.214C258.468 206.012 258.812 205.735 259.082 205.383C259.352 205.024 259.505 204.616 259.542 204.159H261.519C261.482 204.878 261.238 205.548 260.789 206.169C260.347 206.783 259.767 207.281 259.048 207.663C258.33 208.037 257.54 208.225 256.679 208.225C255.765 208.225 254.968 208.064 254.287 207.742C253.613 207.42 253.051 206.978 252.602 206.417C252.16 205.855 251.827 205.211 251.603 204.485C251.385 203.751 251.277 202.976 251.277 202.16V201.688C251.277 200.872 251.385 200.101 251.603 199.375C251.827 198.641 252.16 197.994 252.602 197.432C253.051 196.871 253.613 196.429 254.287 196.107C254.968 195.785 255.765 195.624 256.679 195.624C257.63 195.624 258.461 195.819 259.172 196.208C259.883 196.59 260.441 197.114 260.845 197.78C261.257 198.439 261.482 199.188 261.519 200.026H259.542C259.505 199.525 259.363 199.072 259.116 198.667C258.876 198.263 258.547 197.941 258.127 197.702C257.716 197.455 257.233 197.331 256.679 197.331C256.042 197.331 255.507 197.458 255.073 197.713C254.646 197.96 254.305 198.297 254.051 198.724C253.804 199.143 253.624 199.611 253.512 200.127C253.407 200.637 253.354 201.157 253.354 201.688V202.16C253.354 202.692 253.407 203.216 253.512 203.732C253.617 204.249 253.792 204.717 254.04 205.136C254.294 205.556 254.635 205.892 255.062 206.147C255.496 206.394 256.035 206.518 256.679 206.518ZM270.84 205.237L274.973 195.849H276.972L271.559 208H270.122L264.731 195.849H266.73L270.84 205.237ZM266.124 195.849V208H264.046V195.849H266.124ZM275.49 208V195.849H277.579V208H275.49ZM283.171 204.709L288.775 195.849H290.864V208H288.775V199.139L283.171 208H281.105V195.849H283.171V204.709ZM303.364 195.849V208H301.286V195.849H303.364ZM302.656 201.43V203.137C302.237 203.294 301.81 203.437 301.376 203.564C300.949 203.684 300.496 203.781 300.017 203.856C299.545 203.923 299.033 203.957 298.479 203.957C297.52 203.957 296.689 203.792 295.985 203.463C295.282 203.126 294.739 202.621 294.357 201.947C293.975 201.265 293.784 200.408 293.784 199.375V195.826H295.862V199.375C295.862 200.049 295.963 200.595 296.165 201.015C296.367 201.434 296.663 201.745 297.052 201.947C297.442 202.141 297.917 202.239 298.479 202.239C299.018 202.239 299.523 202.205 299.995 202.138C300.474 202.063 300.931 201.965 301.365 201.846C301.806 201.726 302.237 201.587 302.656 201.43ZM311.753 208.225C310.907 208.225 310.139 208.082 309.451 207.798C308.769 207.506 308.182 207.098 307.688 206.574C307.201 206.05 306.826 205.428 306.564 204.709C306.302 203.991 306.171 203.205 306.171 202.351V201.879C306.171 200.891 306.317 200.011 306.609 199.24C306.901 198.462 307.298 197.803 307.8 197.264C308.301 196.725 308.87 196.317 309.507 196.04C310.143 195.763 310.802 195.624 311.483 195.624C312.352 195.624 313.101 195.774 313.729 196.073C314.366 196.373 314.886 196.792 315.291 197.331C315.695 197.863 315.994 198.492 316.189 199.218C316.384 199.937 316.481 200.723 316.481 201.576V202.508H307.407V200.812H314.403V200.655C314.373 200.116 314.261 199.592 314.066 199.083C313.879 198.574 313.58 198.155 313.168 197.825C312.756 197.496 312.195 197.331 311.483 197.331C311.012 197.331 310.577 197.432 310.181 197.634C309.784 197.829 309.443 198.121 309.159 198.51C308.874 198.9 308.653 199.375 308.496 199.937C308.339 200.498 308.26 201.146 308.26 201.879V202.351C308.26 202.928 308.339 203.47 308.496 203.979C308.661 204.481 308.897 204.923 309.204 205.305C309.518 205.687 309.896 205.986 310.338 206.203C310.787 206.42 311.296 206.529 311.865 206.529C312.599 206.529 313.22 206.379 313.729 206.08C314.239 205.78 314.684 205.38 315.066 204.878L316.324 205.877C316.062 206.274 315.729 206.652 315.324 207.012C314.92 207.371 314.422 207.663 313.831 207.888C313.247 208.112 312.554 208.225 311.753 208.225ZM323.77 206.518C324.264 206.518 324.72 206.417 325.14 206.214C325.559 206.012 325.903 205.735 326.173 205.383C326.442 205.024 326.596 204.616 326.633 204.159H328.61C328.572 204.878 328.329 205.548 327.88 206.169C327.438 206.783 326.858 207.281 326.139 207.663C325.42 208.037 324.631 208.225 323.77 208.225C322.856 208.225 322.059 208.064 321.377 207.742C320.704 207.42 320.142 206.978 319.693 206.417C319.251 205.855 318.918 205.211 318.693 204.485C318.476 203.751 318.368 202.976 318.368 202.16V201.688C318.368 200.872 318.476 200.101 318.693 199.375C318.918 198.641 319.251 197.994 319.693 197.432C320.142 196.871 320.704 196.429 321.377 196.107C322.059 195.785 322.856 195.624 323.77 195.624C324.72 195.624 325.551 195.819 326.263 196.208C326.974 196.59 327.532 197.114 327.936 197.78C328.348 198.439 328.572 199.188 328.61 200.026H326.633C326.596 199.525 326.454 199.072 326.207 198.667C325.967 198.263 325.638 197.941 325.218 197.702C324.806 197.455 324.324 197.331 323.77 197.331C323.133 197.331 322.598 197.458 322.164 197.713C321.737 197.96 321.396 198.297 321.142 198.724C320.895 199.143 320.715 199.611 320.603 200.127C320.498 200.637 320.445 201.157 320.445 201.688V202.16C320.445 202.692 320.498 203.216 320.603 203.732C320.707 204.249 320.883 204.717 321.13 205.136C321.385 205.556 321.726 205.892 322.152 206.147C322.587 206.394 323.126 206.518 323.77 206.518ZM333.203 195.849V208H331.125V195.849H333.203ZM341.177 195.849L335.416 202.812H332.507L332.192 200.992H334.573L338.65 195.849H341.177ZM338.942 208L334.472 202.497L335.809 200.992L341.581 208H338.942ZM342.592 202.059V201.801C342.592 200.925 342.719 200.112 342.974 199.364C343.228 198.608 343.595 197.952 344.074 197.398C344.553 196.837 345.134 196.403 345.815 196.096C346.496 195.781 347.26 195.624 348.106 195.624C348.959 195.624 349.727 195.781 350.408 196.096C351.097 196.403 351.681 196.837 352.16 197.398C352.647 197.952 353.017 198.608 353.272 199.364C353.527 200.112 353.654 200.925 353.654 201.801V202.059C353.654 202.935 353.527 203.747 353.272 204.496C353.017 205.245 352.647 205.9 352.16 206.461C351.681 207.015 351.101 207.45 350.419 207.764C349.746 208.071 348.982 208.225 348.128 208.225C347.275 208.225 346.507 208.071 345.826 207.764C345.145 207.45 344.561 207.015 344.074 206.461C343.595 205.9 343.228 205.245 342.974 204.496C342.719 203.747 342.592 202.935 342.592 202.059ZM344.669 201.801V202.059C344.669 202.666 344.741 203.238 344.883 203.777C345.025 204.309 345.238 204.781 345.523 205.192C345.815 205.604 346.178 205.93 346.612 206.169C347.047 206.402 347.552 206.518 348.128 206.518C348.697 206.518 349.195 206.402 349.622 206.169C350.056 205.93 350.416 205.604 350.7 205.192C350.985 204.781 351.198 204.309 351.34 203.777C351.49 203.238 351.565 202.666 351.565 202.059V201.801C351.565 201.202 351.49 200.637 351.34 200.105C351.198 199.566 350.981 199.09 350.689 198.679C350.404 198.259 350.045 197.93 349.611 197.69C349.184 197.451 348.682 197.331 348.106 197.331C347.537 197.331 347.035 197.451 346.601 197.69C346.174 197.93 345.815 198.259 345.523 198.679C345.238 199.09 345.025 199.566 344.883 200.105C344.741 200.637 344.669 201.202 344.669 201.801ZM364.109 195.849V197.567H358.494V208H356.417V195.849H364.109ZM365.143 202.059V201.801C365.143 200.925 365.27 200.112 365.524 199.364C365.779 198.608 366.146 197.952 366.625 197.398C367.104 196.837 367.684 196.403 368.366 196.096C369.047 195.781 369.811 195.624 370.657 195.624C371.51 195.624 372.278 195.781 372.959 196.096C373.648 196.403 374.232 196.837 374.711 197.398C375.198 197.952 375.568 198.608 375.823 199.364C376.077 200.112 376.205 200.925 376.205 201.801V202.059C376.205 202.935 376.077 203.747 375.823 204.496C375.568 205.245 375.198 205.9 374.711 206.461C374.232 207.015 373.652 207.45 372.97 207.764C372.296 208.071 371.533 208.225 370.679 208.225C369.826 208.225 369.058 208.071 368.377 207.764C367.696 207.45 367.112 207.015 366.625 206.461C366.146 205.9 365.779 205.245 365.524 204.496C365.27 203.747 365.143 202.935 365.143 202.059ZM367.22 201.801V202.059C367.22 202.666 367.291 203.238 367.434 203.777C367.576 204.309 367.789 204.781 368.074 205.192C368.366 205.604 368.729 205.93 369.163 206.169C369.597 206.402 370.103 206.518 370.679 206.518C371.248 206.518 371.746 206.402 372.173 206.169C372.607 205.93 372.966 205.604 373.251 205.192C373.535 204.781 373.749 204.309 373.891 203.777C374.041 203.238 374.116 202.666 374.116 202.059V201.801C374.116 201.202 374.041 200.637 373.891 200.105C373.749 199.566 373.532 199.09 373.24 198.679C372.955 198.259 372.596 197.93 372.162 197.69C371.735 197.451 371.233 197.331 370.657 197.331C370.088 197.331 369.586 197.451 369.152 197.69C368.725 197.93 368.366 198.259 368.074 198.679C367.789 199.09 367.576 199.566 367.434 200.105C367.291 200.637 367.22 201.202 367.22 201.801ZM183.681 222.849V224.567H177.538V222.849H183.681ZM177.841 222.849V235H175.763V222.849H177.841ZM185.522 222.849V235H183.434V222.849H185.522ZM190.936 225.185V239.672H188.847V222.849H190.756L190.936 225.185ZM199.123 228.823V229.059C199.123 229.943 199.018 230.762 198.808 231.519C198.598 232.267 198.292 232.919 197.887 233.473C197.49 234.027 197 234.457 196.416 234.764C195.832 235.071 195.162 235.225 194.406 235.225C193.635 235.225 192.953 235.097 192.362 234.843C191.77 234.588 191.269 234.218 190.857 233.731C190.445 233.244 190.116 232.66 189.869 231.979C189.629 231.298 189.464 230.53 189.375 229.677V228.419C189.464 227.521 189.633 226.716 189.88 226.004C190.127 225.293 190.453 224.687 190.857 224.185C191.269 223.676 191.767 223.29 192.351 223.028C192.935 222.759 193.608 222.624 194.372 222.624C195.136 222.624 195.813 222.774 196.405 223.073C196.996 223.365 197.494 223.785 197.898 224.331C198.303 224.878 198.606 225.533 198.808 226.296C199.018 227.053 199.123 227.895 199.123 228.823ZM197.034 229.059V228.823C197.034 228.217 196.97 227.648 196.843 227.116C196.715 226.577 196.517 226.105 196.248 225.701C195.986 225.289 195.649 224.967 195.237 224.735C194.825 224.496 194.335 224.376 193.766 224.376C193.242 224.376 192.785 224.466 192.396 224.646C192.014 224.825 191.688 225.069 191.418 225.375C191.149 225.675 190.928 226.019 190.756 226.409C190.591 226.791 190.468 227.187 190.385 227.599V230.508C190.535 231.032 190.745 231.526 191.014 231.99C191.284 232.447 191.643 232.818 192.092 233.102C192.542 233.379 193.107 233.518 193.788 233.518C194.35 233.518 194.833 233.402 195.237 233.169C195.649 232.93 195.986 232.604 196.248 232.192C196.517 231.781 196.715 231.309 196.843 230.777C196.97 230.238 197.034 229.666 197.034 229.059ZM204.019 231.709L209.623 222.849H211.712V235H209.623V226.139L204.019 235H201.953V222.849H204.019V231.709ZM222.841 217.559H224.548C224.548 218.293 224.436 218.877 224.211 219.311C223.987 219.738 223.68 220.067 223.291 220.299C222.909 220.531 222.474 220.707 221.988 220.827C221.509 220.947 221.011 221.063 220.494 221.175C219.85 221.31 219.251 221.523 218.697 221.815C218.151 222.1 217.679 222.504 217.282 223.028C216.893 223.552 216.605 224.234 216.417 225.072C216.238 225.911 216.189 226.948 216.271 228.183V229.216H214.564V228.183C214.564 226.798 214.695 225.589 214.958 224.556C215.227 223.522 215.605 222.65 216.092 221.939C216.578 221.228 217.155 220.662 217.821 220.243C218.495 219.824 219.236 219.536 220.045 219.378C220.629 219.266 221.131 219.146 221.55 219.019C221.969 218.884 222.287 218.705 222.504 218.48C222.729 218.255 222.841 217.948 222.841 217.559ZM220.382 223.545C221.175 223.545 221.883 223.683 222.504 223.96C223.126 224.237 223.654 224.623 224.088 225.117C224.522 225.611 224.852 226.195 225.076 226.869C225.308 227.535 225.424 228.262 225.424 229.048V229.295C225.424 230.141 225.301 230.927 225.054 231.653C224.814 232.372 224.458 233.001 223.987 233.54C223.523 234.072 222.954 234.487 222.28 234.787C221.613 235.086 220.854 235.236 220 235.236C219.146 235.236 218.383 235.086 217.709 234.787C217.043 234.487 216.474 234.072 216.002 233.54C215.53 233.001 215.171 232.372 214.924 231.653C214.684 230.927 214.564 230.141 214.564 229.295V229.048C214.564 228.861 214.598 228.677 214.666 228.498C214.733 228.318 214.815 228.134 214.913 227.947C215.017 227.76 215.111 227.562 215.193 227.352C215.47 226.678 215.848 226.053 216.328 225.477C216.814 224.9 217.395 224.436 218.068 224.084C218.75 223.725 219.521 223.545 220.382 223.545ZM219.978 225.241C219.214 225.241 218.585 225.417 218.091 225.769C217.604 226.12 217.241 226.588 217.001 227.172C216.762 227.749 216.642 228.374 216.642 229.048V229.295C216.642 229.864 216.709 230.403 216.844 230.912C216.979 231.421 217.181 231.874 217.451 232.271C217.728 232.66 218.076 232.967 218.495 233.192C218.922 233.417 219.424 233.529 220 233.529C220.576 233.529 221.074 233.417 221.494 233.192C221.913 232.967 222.257 232.66 222.527 232.271C222.796 231.874 222.999 231.421 223.133 230.912C223.268 230.403 223.335 229.864 223.335 229.295V229.048C223.335 228.539 223.268 228.056 223.133 227.599C222.999 227.142 222.793 226.738 222.516 226.386C222.246 226.034 221.898 225.757 221.471 225.555C221.052 225.346 220.554 225.241 219.978 225.241ZM227.232 229.059V228.801C227.232 227.925 227.36 227.112 227.614 226.364C227.869 225.608 228.236 224.952 228.715 224.398C229.194 223.837 229.774 223.403 230.456 223.096C231.137 222.781 231.901 222.624 232.747 222.624C233.6 222.624 234.368 222.781 235.049 223.096C235.738 223.403 236.322 223.837 236.801 224.398C237.287 224.952 237.658 225.608 237.913 226.364C238.167 227.112 238.294 227.925 238.294 228.801V229.059C238.294 229.935 238.167 230.747 237.913 231.496C237.658 232.245 237.287 232.9 236.801 233.461C236.322 234.015 235.741 234.45 235.06 234.764C234.386 235.071 233.623 235.225 232.769 235.225C231.916 235.225 231.148 235.071 230.467 234.764C229.785 234.45 229.201 234.015 228.715 233.461C228.236 232.9 227.869 232.245 227.614 231.496C227.36 230.747 227.232 229.935 227.232 229.059ZM229.31 228.801V229.059C229.31 229.666 229.381 230.238 229.523 230.777C229.666 231.309 229.879 231.781 230.164 232.192C230.456 232.604 230.819 232.93 231.253 233.169C231.687 233.402 232.193 233.518 232.769 233.518C233.338 233.518 233.836 233.402 234.263 233.169C234.697 232.93 235.056 232.604 235.341 232.192C235.625 231.781 235.839 231.309 235.981 230.777C236.131 230.238 236.206 229.666 236.206 229.059V228.801C236.206 228.202 236.131 227.637 235.981 227.105C235.839 226.566 235.622 226.09 235.33 225.679C235.045 225.259 234.686 224.93 234.251 224.69C233.825 224.451 233.323 224.331 232.747 224.331C232.178 224.331 231.676 224.451 231.242 224.69C230.815 224.93 230.456 225.259 230.164 225.679C229.879 226.09 229.666 226.566 229.523 227.105C229.381 227.637 229.31 228.202 229.31 228.801ZM242.978 225.185V239.672H240.889V222.849H242.798L242.978 225.185ZM251.165 228.823V229.059C251.165 229.943 251.06 230.762 250.85 231.519C250.64 232.267 250.333 232.919 249.929 233.473C249.532 234.027 249.042 234.457 248.458 234.764C247.874 235.071 247.204 235.225 246.448 235.225C245.677 235.225 244.995 235.097 244.404 234.843C243.812 234.588 243.311 234.218 242.899 233.731C242.487 233.244 242.158 232.66 241.911 231.979C241.671 231.298 241.506 230.53 241.417 229.677V228.419C241.506 227.521 241.675 226.716 241.922 226.004C242.169 225.293 242.495 224.687 242.899 224.185C243.311 223.676 243.809 223.29 244.393 223.028C244.977 222.759 245.65 222.624 246.414 222.624C247.178 222.624 247.855 222.774 248.447 223.073C249.038 223.365 249.536 223.785 249.94 224.331C250.345 224.878 250.648 225.533 250.85 226.296C251.06 227.053 251.165 227.895 251.165 228.823ZM249.076 229.059V228.823C249.076 228.217 249.012 227.648 248.885 227.116C248.757 226.577 248.559 226.105 248.29 225.701C248.028 225.289 247.691 224.967 247.279 224.735C246.867 224.496 246.377 224.376 245.808 224.376C245.284 224.376 244.827 224.466 244.438 224.646C244.056 224.825 243.73 225.069 243.46 225.375C243.191 225.675 242.97 226.019 242.798 226.409C242.633 226.791 242.51 227.187 242.427 227.599V230.508C242.577 231.032 242.787 231.526 243.056 231.99C243.326 232.447 243.685 232.818 244.134 233.102C244.583 233.379 245.149 233.518 245.83 233.518C246.392 233.518 246.875 233.402 247.279 233.169C247.691 232.93 248.028 232.604 248.29 232.192C248.559 231.781 248.757 231.309 248.885 230.777C249.012 230.238 249.076 229.666 249.076 229.059ZM253.265 229.059V228.801C253.265 227.925 253.392 227.112 253.646 226.364C253.901 225.608 254.268 224.952 254.747 224.398C255.226 223.837 255.806 223.403 256.488 223.096C257.169 222.781 257.933 222.624 258.779 222.624C259.632 222.624 260.4 222.781 261.081 223.096C261.77 223.403 262.354 223.837 262.833 224.398C263.32 224.952 263.69 225.608 263.945 226.364C264.199 227.112 264.327 227.925 264.327 228.801V229.059C264.327 229.935 264.199 230.747 263.945 231.496C263.69 232.245 263.32 232.9 262.833 233.461C262.354 234.015 261.774 234.45 261.092 234.764C260.418 235.071 259.655 235.225 258.801 235.225C257.948 235.225 257.18 235.071 256.499 234.764C255.818 234.45 255.234 234.015 254.747 233.461C254.268 232.9 253.901 232.245 253.646 231.496C253.392 230.747 253.265 229.935 253.265 229.059ZM255.342 228.801V229.059C255.342 229.666 255.413 230.238 255.556 230.777C255.698 231.309 255.911 231.781 256.196 232.192C256.488 232.604 256.851 232.93 257.285 233.169C257.719 233.402 258.225 233.518 258.801 233.518C259.37 233.518 259.868 233.402 260.295 233.169C260.729 232.93 261.089 232.604 261.373 232.192C261.658 231.781 261.871 231.309 262.013 230.777C262.163 230.238 262.238 229.666 262.238 229.059V228.801C262.238 228.202 262.163 227.637 262.013 227.105C261.871 226.566 261.654 226.09 261.362 225.679C261.077 225.259 260.718 224.93 260.284 224.69C259.857 224.451 259.355 224.331 258.779 224.331C258.21 224.331 257.708 224.451 257.274 224.69C256.847 224.93 256.488 225.259 256.196 225.679C255.911 226.09 255.698 226.566 255.556 227.105C255.413 227.637 255.342 228.202 255.342 228.801ZM271.795 233.518C272.289 233.518 272.746 233.417 273.165 233.214C273.584 233.012 273.929 232.735 274.198 232.383C274.468 232.024 274.621 231.616 274.659 231.159H276.635C276.598 231.878 276.354 232.548 275.905 233.169C275.464 233.783 274.883 234.281 274.165 234.663C273.446 235.037 272.656 235.225 271.795 235.225C270.882 235.225 270.084 235.064 269.403 234.742C268.729 234.42 268.167 233.978 267.718 233.417C267.277 232.855 266.943 232.211 266.719 231.485C266.502 230.751 266.393 229.976 266.393 229.16V228.688C266.393 227.872 266.502 227.101 266.719 226.375C266.943 225.641 267.277 224.994 267.718 224.432C268.167 223.871 268.729 223.429 269.403 223.107C270.084 222.785 270.882 222.624 271.795 222.624C272.746 222.624 273.577 222.819 274.288 223.208C274.999 223.59 275.557 224.114 275.961 224.78C276.373 225.439 276.598 226.188 276.635 227.026H274.659C274.621 226.525 274.479 226.072 274.232 225.667C273.992 225.263 273.663 224.941 273.244 224.702C272.832 224.455 272.349 224.331 271.795 224.331C271.159 224.331 270.623 224.458 270.189 224.713C269.762 224.96 269.422 225.297 269.167 225.724C268.92 226.143 268.74 226.611 268.628 227.127C268.523 227.637 268.471 228.157 268.471 228.688V229.16C268.471 229.692 268.523 230.216 268.628 230.732C268.733 231.249 268.909 231.717 269.156 232.136C269.41 232.556 269.751 232.892 270.178 233.147C270.612 233.394 271.151 233.518 271.795 233.518ZM283.924 222.849V235H281.835V222.849H283.924ZM288 222.849V224.533H277.837V222.849H288ZM292.122 225.185V239.672H290.033V222.849H291.942L292.122 225.185ZM300.309 228.823V229.059C300.309 229.943 300.204 230.762 299.995 231.519C299.785 232.267 299.478 232.919 299.074 233.473C298.677 234.027 298.187 234.457 297.603 234.764C297.019 235.071 296.348 235.225 295.592 235.225C294.821 235.225 294.14 235.097 293.548 234.843C292.957 234.588 292.455 234.218 292.043 233.731C291.632 233.244 291.302 232.66 291.055 231.979C290.816 231.298 290.651 230.53 290.561 229.677V228.419C290.651 227.521 290.819 226.716 291.066 226.004C291.313 225.293 291.639 224.687 292.043 224.185C292.455 223.676 292.953 223.29 293.537 223.028C294.121 222.759 294.795 222.624 295.559 222.624C296.322 222.624 297 222.774 297.591 223.073C298.183 223.365 298.681 223.785 299.085 224.331C299.489 224.878 299.792 225.533 299.995 226.296C300.204 227.053 300.309 227.895 300.309 228.823ZM298.22 229.059V228.823C298.22 228.217 298.157 227.648 298.029 227.116C297.902 226.577 297.704 226.105 297.434 225.701C297.172 225.289 296.835 224.967 296.423 224.735C296.012 224.496 295.521 224.376 294.952 224.376C294.428 224.376 293.971 224.466 293.582 224.646C293.2 224.825 292.875 225.069 292.605 225.375C292.335 225.675 292.115 226.019 291.942 226.409C291.778 226.791 291.654 227.187 291.572 227.599V230.508C291.722 231.032 291.931 231.526 292.201 231.99C292.47 232.447 292.83 232.818 293.279 233.102C293.728 233.379 294.293 233.518 294.975 233.518C295.536 233.518 296.019 233.402 296.423 233.169C296.835 232.93 297.172 232.604 297.434 232.192C297.704 231.781 297.902 231.309 298.029 230.777C298.157 230.238 298.22 229.666 298.22 229.059ZM302.409 229.059V228.801C302.409 227.925 302.536 227.112 302.791 226.364C303.046 225.608 303.412 224.952 303.892 224.398C304.371 223.837 304.951 223.403 305.632 223.096C306.314 222.781 307.077 222.624 307.923 222.624C308.777 222.624 309.544 222.781 310.226 223.096C310.914 223.403 311.498 223.837 311.978 224.398C312.464 224.952 312.835 225.608 313.089 226.364C313.344 227.112 313.471 227.925 313.471 228.801V229.059C313.471 229.935 313.344 230.747 313.089 231.496C312.835 232.245 312.464 232.9 311.978 233.461C311.498 234.015 310.918 234.45 310.237 234.764C309.563 235.071 308.799 235.225 307.946 235.225C307.092 235.225 306.325 235.071 305.644 234.764C304.962 234.45 304.378 234.015 303.892 233.461C303.412 232.9 303.046 232.245 302.791 231.496C302.536 230.747 302.409 229.935 302.409 229.059ZM304.487 228.801V229.059C304.487 229.666 304.558 230.238 304.7 230.777C304.842 231.309 305.056 231.781 305.34 232.192C305.632 232.604 305.995 232.93 306.43 233.169C306.864 233.402 307.369 233.518 307.946 233.518C308.515 233.518 309.013 233.402 309.439 233.169C309.874 232.93 310.233 232.604 310.518 232.192C310.802 231.781 311.015 231.309 311.158 230.777C311.307 230.238 311.382 229.666 311.382 229.059V228.801C311.382 228.202 311.307 227.637 311.158 227.105C311.015 226.566 310.798 226.09 310.506 225.679C310.222 225.259 309.862 224.93 309.428 224.69C309.001 224.451 308.5 224.331 307.923 224.331C307.354 224.331 306.853 224.451 306.418 224.69C305.992 224.93 305.632 225.259 305.34 225.679C305.056 226.09 304.842 226.566 304.7 227.105C304.558 227.637 304.487 228.202 304.487 228.801ZM321.119 235.225C320.273 235.225 319.506 235.082 318.817 234.798C318.136 234.506 317.548 234.098 317.054 233.574C316.567 233.05 316.193 232.428 315.931 231.709C315.669 230.991 315.538 230.205 315.538 229.351V228.879C315.538 227.891 315.684 227.011 315.976 226.24C316.268 225.462 316.664 224.803 317.166 224.264C317.668 223.725 318.237 223.317 318.873 223.04C319.509 222.763 320.168 222.624 320.85 222.624C321.718 222.624 322.467 222.774 323.096 223.073C323.732 223.373 324.252 223.792 324.657 224.331C325.061 224.863 325.361 225.492 325.555 226.218C325.75 226.937 325.847 227.723 325.847 228.576V229.508H316.773V227.812H323.77V227.655C323.74 227.116 323.627 226.592 323.433 226.083C323.245 225.574 322.946 225.155 322.534 224.825C322.122 224.496 321.561 224.331 320.85 224.331C320.378 224.331 319.944 224.432 319.547 224.634C319.15 224.829 318.809 225.121 318.525 225.51C318.24 225.9 318.02 226.375 317.862 226.937C317.705 227.498 317.626 228.146 317.626 228.879V229.351C317.626 229.928 317.705 230.47 317.862 230.979C318.027 231.481 318.263 231.923 318.57 232.305C318.884 232.687 319.262 232.986 319.704 233.203C320.153 233.42 320.662 233.529 321.231 233.529C321.965 233.529 322.587 233.379 323.096 233.08C323.605 232.78 324.05 232.38 324.432 231.878L325.69 232.877C325.428 233.274 325.095 233.652 324.69 234.012C324.286 234.371 323.788 234.663 323.197 234.888C322.613 235.112 321.92 235.225 321.119 235.225ZM336.516 228.116V229.8H330.092V228.116H336.516ZM330.53 222.849V235H328.453V222.849H330.53ZM338.201 222.849V235H336.112V222.849H338.201ZM343.793 231.709L349.397 222.849H351.486V235H349.397V226.139L343.793 235H341.727V222.849H343.793V231.709ZM357.281 229.205H359.527L356.012 235H353.766L357.281 229.205ZM359.022 222.849H364.098V235H362.021V224.533H359.022C358.431 224.533 357.948 224.634 357.573 224.836C357.199 225.031 356.926 225.286 356.753 225.6C356.581 225.915 356.495 226.24 356.495 226.577C356.495 226.907 356.574 227.225 356.731 227.532C356.888 227.831 357.135 228.078 357.472 228.273C357.809 228.468 358.243 228.565 358.775 228.565H362.582V230.272H358.775C358.079 230.272 357.461 230.178 356.922 229.991C356.383 229.804 355.926 229.546 355.552 229.216C355.177 228.879 354.893 228.486 354.698 228.037C354.504 227.58 354.406 227.086 354.406 226.555C354.406 226.023 354.507 225.533 354.709 225.083C354.919 224.634 355.219 224.241 355.608 223.904C356.005 223.567 356.488 223.309 357.057 223.129C357.633 222.942 358.288 222.849 359.022 222.849Z" fill="#005AAA"/>
<path d="M174 85.5362V110.384H183.041V85.2715C183.041 82.8956 184.982 80.97 187.377 80.97H200.269V72H187.644C180.108 72 174 78.0602 174 85.5362Z" fill="#005AAA"/>
<path d="M232.729 72.0001L223.7 89.0898L213.719 72.0001H203.278L218.72 98.4618L217.752 100.182C217.256 101.119 216.285 101.7 215.221 101.7H208.828V110.67H215.221C219.651 110.67 223.686 108.255 225.752 104.365L242.998 72.0001H232.729Z" fill="#005AAA"/>
<path d="M252.192 94.4089L257.767 83.8385C258.602 82.0952 260.398 80.9693 262.344 80.9693H265.036C265.664 80.9693 266.173 81.4746 266.173 82.0974V94.4089H252.192ZM268.392 72.0005H262.344C256.929 72.0005 251.927 75.1343 249.681 79.8335L233.555 110.401H243.756L247.461 103.379H266.173V110.401H275.214V78.768C275.214 75.03 272.16 72.0005 268.392 72.0005Z" fill="#005AAA"/>
<path d="M311.831 72.0001H291.359C287.592 72.0001 284.538 75.0307 284.538 78.7676V110.316H293.579V82.0894C293.579 81.4709 294.084 80.97 294.706 80.97H308.484C309.108 80.97 309.613 81.4709 309.613 82.0894V110.3H318.653V78.7676C318.653 75.0307 315.599 72.0001 311.831 72.0001Z" fill="#005AAA"/>
<path d="M87.8147 75.7231C75.1893 75.8839 34 77.4778 34 91.1917C34 105.934 81.5635 106.68 91.0992 106.68C100.634 106.68 148.197 105.934 148.197 91.1917C148.197 84.6542 139.615 81.6605 133.161 79.9779C126.121 78.1422 116.612 76.8112 106.113 76.1612C106.285 78.953 106.406 81.8224 106.48 84.7396C125.665 85.9919 135.812 89.2329 138.932 91.2028C134.707 93.937 118.417 98.1342 91.0992 98.1342C63.7323 98.1342 47.4337 93.9215 43.2423 91.1884C47.2211 88.573 62.131 84.5977 87.9232 84.2671C90.2797 84.2383 92.1656 82.3005 92.1346 79.9402C92.1047 77.5998 90.2011 75.722 87.8701 75.722C87.8512 75.722 87.8335 75.722 87.8147 75.7231Z" fill="url(#paint0_linear_1206_52910)"/>
<path d="M75.6346 91.1917C75.6346 100.741 76.3799 148.381 91.0993 148.381C97.6229 148.381 100.612 139.792 102.292 133.33C104.126 126.275 105.455 116.742 106.106 106.218C102.944 106.408 100.02 106.522 97.541 106.589C96.2907 125.81 93.0538 135.977 91.0871 139.103C88.3574 134.869 84.1659 118.553 84.1659 91.1917C84.1659 63.8016 88.3663 47.48 91.0949 43.2673C93.7149 47.3546 97.7979 62.9364 98.0216 89.0399C98.0415 91.3881 99.9473 93.277 102.287 93.277H102.325C104.68 93.2559 106.574 91.3259 106.554 88.9678C106.434 75.0087 105.183 61.9293 103.03 52.1407C100.308 39.7645 96.5167 34 91.0993 34C76.3799 34 75.6346 81.6406 75.6346 91.1917Z" fill="url(#paint1_linear_1206_52910)"/>
<defs>
<linearGradient id="paint0_linear_1206_52910" x1="34.0001" y1="91.1898" x2="148.197" y2="91.1898" gradientUnits="userSpaceOnUse">
<stop stop-color="#45C3F3"/>
<stop offset="0.5" stop-color="#1671C2"/>
<stop offset="0.959876" stop-color="#2056AE"/>
<stop offset="1" stop-color="#2056AE"/>
</linearGradient>
<linearGradient id="paint1_linear_1206_52910" x1="91.0941" y1="148.382" x2="91.0941" y2="34.0001" gradientUnits="userSpaceOnUse">
<stop stop-color="#2056AE"/>
<stop offset="0.25" stop-color="#2056AE"/>
<stop offset="0.280093" stop-color="#2056AE"/>
<stop offset="0.625" stop-color="#A32B9B"/>
<stop offset="1" stop-color="#ED1443"/>
</linearGradient>
</defs>
</svg>
